<svg id="mouse" xmlns="http://www.w3.org/2000/svg" width="32.059" height="48.089" viewBox="0 0 32.059 48.089">
  <g id="Group_1291" data-name="Group 1291" transform="translate(0)">
    <g id="Group_1290" data-name="Group 1290">
      <path id="Path_1211" data-name="Path 1211" d="M51.1,0a16.044,16.044,0,0,0-16.03,16.022V32.068a16.03,16.03,0,0,0,32.059,0V16.022A16.044,16.044,0,0,0,51.1,0ZM65.347,32.068a14.249,14.249,0,0,1-28.5,0V16.022a14.249,14.249,0,0,1,28.5,0Z" transform="translate(-35.069 0)" fill="#57a4b0"/>
      <path id="Path_1212" data-name="Path 1212" d="M102.2,23.379a.89.89,0,0,0-.891.891v8.064a.891.891,0,1,0,1.781,0V24.27A.891.891,0,0,0,102.2,23.379Z" transform="translate(-86.171 -18.036)" fill="#57a4b0"/>
    </g>
  </g>
</svg>
