<svg xmlns="http://www.w3.org/2000/svg" width="38.157" height="39.339" viewBox="0 0 38.157 39.339">
  <path id="Path_1537" data-name="Path 1537" d="M913.269,384.536a8.634,8.634,0,0,1-2.992,3.072,8.343,8.343,0,0,1-8.466,0,8.7,8.7,0,0,1-3.02-3.072,8.143,8.143,0,0,1-1.126-4.2A8.74,8.74,0,0,1,901.677,373a8.38,8.38,0,0,1,8.734.013,8.745,8.745,0,0,1,3.972,7.326A8.22,8.22,0,0,1,913.269,384.536Zm-5.192-6.426a2.712,2.712,0,0,0-2.04-.913,2.774,2.774,0,0,0-2.066.925,3.125,3.125,0,0,0-.886,2.24,2.913,2.913,0,0,0,.859,2.147,2.848,2.848,0,0,0,2.093.859,2.788,2.788,0,0,0,2.04-.859,2.914,2.914,0,0,0,.859-2.147A3.162,3.162,0,0,0,908.077,378.109ZM930,375.882l-18.784,35.233-7.943-4.105,18.784-35.233Zm4.709,31.006a8.639,8.639,0,0,1-2.992,3.073,8.344,8.344,0,0,1-8.466,0,8.706,8.706,0,0,1-3.019-3.073,8.142,8.142,0,0,1-1.127-4.2,8.745,8.745,0,0,1,4.012-7.339,7.864,7.864,0,0,1,4.36-1.221,7.785,7.785,0,0,1,4.374,1.234,8.746,8.746,0,0,1,3.972,7.326A8.216,8.216,0,0,1,934.71,406.888Zm-5.192-6.427a2.713,2.713,0,0,0-2.04-.911,2.772,2.772,0,0,0-2.066.925,3.124,3.124,0,0,0-.886,2.24,2.911,2.911,0,0,0,.859,2.146,2.845,2.845,0,0,0,2.093.859,2.786,2.786,0,0,0,2.04-.859,2.914,2.914,0,0,0,.859-2.146A3.17,3.17,0,0,0,929.518,400.461Z" transform="translate(-897.666 -371.776)" fill="#ffbe41"/>
</svg>
